<?xml version="1.0" standalone="no"?>
<!DOCTYPE svg PUBLIC "-//W3C//DTD SVG 20010904//EN"
 "http://www.w3.org/TR/2001/REC-SVG-20010904/DTD/svg10.dtd">
<svg version="1.0" xmlns="http://www.w3.org/2000/svg"
 width="700.000000pt" height="700.000000pt" viewBox="0 0 700.000000 700.000000"
 preserveAspectRatio="xMidYMid meet">
<metadata>
Created by potrace 1.14, written by Peter Selinger 2001-2017
</metadata>
<g transform="translate(0.000000,700.000000) scale(0.100000,-0.100000)"
fill="#000000" stroke="none">
<path d="M2227 6623 c-4 -3 -7 -291 -7 -640 l0 -633 -785 0 -785 0 0 -940 0
-940 785 0 785 0 2 -637 3 -638 223 -3 222 -2 0 -158 c0 -249 36 -507 116
-827 33 -131 111 -385 118 -385 2 0 55 64 117 141 432 541 915 971 1444 1287
133 79 413 223 550 281 318 138 505 259 696 453 334 338 552 825 629 1404 31
238 29 620 -5 873 -16 121 -53 320 -62 335 -7 11 -145 -126 -282 -279 -154
-172 -283 -331 -453 -558 l-148 -199 0 396 0 396 -790 0 -790 0 0 640 0 640
-788 0 c-434 0 -792 -3 -795 -7z"/>
<path d="M5085 2512 c-84 -56 -201 -168 -363 -345 -194 -213 -267 -261 -653
-431 -405 -178 -555 -263 -678 -385 -122 -123 -178 -269 -188 -491 -8 -180 21
-403 78 -594 l21 -70 56 64 c307 354 645 610 1007 760 258 107 338 154 462
273 164 157 270 356 325 612 35 163 35 489 0 620 l-7 26 -60 -39z"/>
</g>
</svg>
