<svg width="80" height="80" viewBox="0 0 33 33" fill="none" xmlns="http://www.w3.org/2000/svg">
<g clip-path="url(#clip0_567_5229)">
<path d="M12.964 10.9658C13.0304 10.7807 13.2165 10.6667 13.4117 10.6922C13.6067 10.7176 13.7576 10.8754 13.7744 11.0713L14.4429 18.8814L15.6946 14.3694C15.7458 14.1849 15.9149 14.0582 16.107 14.063C16.2983 14.0672 16.4624 14.2008 16.5054 14.3873L17.2025 17.4114L18.3927 12.4108C18.4391 12.2151 18.6187 12.0812 18.8193 12.0897C19.0201 12.0993 19.1859 12.2504 19.2139 12.4495L20.1021 18.7819L20.5003 17.4949C20.5545 17.3197 20.7165 17.2003 20.8999 17.2003H30.3196V15.0441C30.3196 13.0536 28.7058 11.4394 26.7142 11.4394H20.9912V5.71631C20.9912 3.72489 19.3775 2.11133 17.3862 2.11133H15.304H14.9755C12.9847 2.11133 11.3701 3.72497 11.3701 5.71631V11.4393H5.64685C3.65704 11.4393 2.04248 13.0535 2.04248 15.044V17.2463H10.7103L12.964 10.9658Z" fill="#E74424"/>
<path d="M20.3475 20.8184C20.2895 21.0055 20.1091 21.1276 19.9143 21.1117C19.719 21.0958 19.5608 20.9469 19.5337 20.7528L18.6932 14.761L17.6028 19.3423C17.558 19.5308 17.3895 19.6638 17.196 19.6638C17.1955 19.6638 17.195 19.6638 17.1944 19.6638C17.0002 19.6631 16.8319 19.5288 16.7883 19.3394L16.0604 16.1811L14.6275 21.3457C14.5768 21.5281 14.4108 21.652 14.2247 21.652C14.2118 21.652 14.1988 21.6514 14.1857 21.6504C13.984 21.6316 13.8248 21.4712 13.8076 21.2695L13.1043 13.0518L11.3986 17.8059C11.339 17.9722 11.1814 18.083 11.0048 18.083H2.09814C2.39544 19.7744 3.87121 21.0598 5.64695 21.0598H11.3702V26.783C11.3702 28.7744 12.9848 30.3888 14.9756 30.3888H15.3041H17.3863C19.3776 30.3888 20.9913 28.7743 20.9913 26.783V21.0598H26.7143C28.5077 21.0598 29.9941 19.751 30.2723 18.037H21.2083L20.3475 20.8184Z" fill="#E74424"/>
<path d="M31.7796 17.2002H30.3193H20.8996C20.7162 17.2002 20.5541 17.3196 20.4999 17.4947L20.1018 18.7817L19.2136 12.4494C19.1856 12.2503 19.0198 12.0991 18.819 12.0895C18.6184 12.081 18.4388 12.215 18.3924 12.4106L17.2022 17.4112L16.5051 14.3871C16.4621 14.2006 16.298 14.067 16.1067 14.0628C15.9146 14.058 15.7455 14.1848 15.6943 14.3692L14.4426 18.8812L13.7741 11.0712C13.7573 10.8752 13.6064 10.7173 13.4113 10.692C13.2162 10.6665 13.0301 10.7805 12.9636 10.9656L10.7102 17.2462H2.04225H0.741106C0.510072 17.2462 0.322754 17.4335 0.322754 17.6646C0.322754 17.8956 0.509996 18.0829 0.741106 18.0829H2.09781H11.0043C11.181 18.0829 11.3385 17.9722 11.3981 17.8059L13.1038 13.0517L13.8072 21.2694C13.8244 21.4711 13.9836 21.6315 14.1852 21.6503C14.1983 21.6513 14.2113 21.652 14.2242 21.652C14.4104 21.652 14.5763 21.528 14.627 21.3456L16.0599 16.181L16.7878 19.3392C16.8315 19.5287 16.9997 19.6629 17.1939 19.6637C17.1945 19.6637 17.195 19.6637 17.1955 19.6637C17.3891 19.6637 17.5575 19.5307 17.6024 19.3422L18.6927 14.7609L19.5332 20.7527C19.5603 20.9468 19.7186 21.0958 19.9138 21.1116C20.1086 21.1275 20.289 21.0054 20.347 20.8183L21.2078 18.0367H30.2718H31.7796C32.0105 18.0367 32.1978 17.8495 32.1978 17.6185C32.1978 17.3874 32.0107 17.2002 31.7796 17.2002Z" fill="#F7F1E6"/>
</g>
<defs>
<clipPath id="clip0_567_5229">
<rect width="31.875" height="31.875" fill="white" transform="translate(0.322754 0.3125)"/>
</clipPath>
</defs>
</svg>
