<svg width="80" height="80" viewBox="0 0 33 33" fill="none" xmlns="http://www.w3.org/2000/svg">
<g clip-path="url(#clip0_567_5193)">
<path d="M10.0734 24.8095C9.7455 24.8095 9.4274 24.6364 9.25664 24.3295C9.00589 23.8789 9.16799 23.3103 9.61864 23.0596L21.6718 16.3533C22.1226 16.1026 22.6911 16.2647 22.9418 16.7152C23.1926 17.1659 23.0305 17.7345 22.5798 17.9852L10.5266 24.6915C10.3828 24.7715 10.227 24.8095 10.0734 24.8095V24.8095Z" fill="#D5D3EA"/>
<path d="M22.9417 16.7153C22.691 16.2648 22.1224 16.1025 21.6717 16.3533L16.0991 19.4539V21.591L22.5797 17.9853C23.0303 17.7345 23.1924 17.1659 22.9417 16.7153V16.7153Z" fill="#BEBCDD"/>
<path d="M22.125 24.8094C21.9713 24.8094 21.8156 24.7715 21.6718 24.6914L9.61863 17.9852C9.16799 17.7345 9.00589 17.1659 9.25664 16.7153C9.50739 16.2647 10.0759 16.1025 10.5266 16.3534L22.5798 23.0597C23.0305 23.3103 23.1926 23.879 22.9418 24.3296C22.7711 24.6364 22.4529 24.8094 22.125 24.8094Z" fill="#E2DFF4"/>
<path d="M22.5797 23.0599L16.0991 19.4541V21.5912L21.6717 24.6918C21.8154 24.7717 21.9712 24.8098 22.1248 24.8098C22.4528 24.8098 22.7709 24.6367 22.9417 24.3298C23.1924 23.8792 23.0303 23.3106 22.5797 23.0599Z" fill="#D5D3EA"/>
<path d="M9.59285 28.5446C8.04819 28.5446 6.7915 27.288 6.7915 25.7432C6.7915 24.1985 8.04819 22.9419 9.59285 22.9419C11.1375 22.9419 12.3942 24.1985 12.3942 25.7432C12.3942 27.288 11.1375 28.5446 9.59285 28.5446Z" fill="#0D8EBC"/>
<path d="M9.59282 22.9419C9.59276 22.9419 9.59276 22.9419 9.59282 22.9419V28.5446C11.1375 28.5446 12.3942 27.288 12.3942 25.7432C12.3942 24.1985 11.1374 22.9419 9.59282 22.9419Z" fill="#0A617D"/>
<path d="M9.59293 26.6815C10.111 26.6815 10.5311 26.2614 10.5311 25.7433C10.5311 25.2252 10.111 24.8052 9.59293 24.8052C9.0748 24.8052 8.65479 25.2252 8.65479 25.7433C8.65479 26.2614 9.0748 26.6815 9.59293 26.6815Z" fill="#E2DFF4"/>
<path d="M9.59277 24.8052V26.6815C10.1109 26.6815 10.5309 26.2614 10.5309 25.7433C10.5309 25.2252 10.1109 24.8052 9.59277 24.8052Z" fill="#D5D3EA"/>
<path d="M22.6055 28.5446C21.0609 28.5446 19.8042 27.288 19.8042 25.7432C19.8042 24.1985 21.0609 22.9419 22.6055 22.9419C24.1502 22.9419 25.4069 24.1985 25.4069 25.7432C25.4069 27.288 24.1502 28.5446 22.6055 28.5446Z" fill="#0D8EBC"/>
<path d="M22.6055 22.9419V28.5446C24.1501 28.5446 25.4068 27.288 25.4068 25.7432C25.4068 24.1985 24.1501 22.9419 22.6055 22.9419Z" fill="#0A617D"/>
<path d="M22.6051 26.6815C23.1233 26.6815 23.5433 26.2614 23.5433 25.7433C23.5433 25.2252 23.1233 24.8052 22.6051 24.8052C22.087 24.8052 21.667 25.2252 21.667 25.7433C21.667 26.2614 22.087 26.6815 22.6051 26.6815Z" fill="#E2DFF4"/>
<path d="M22.6055 24.8052V26.6815C23.1236 26.6815 23.5436 26.2614 23.5436 25.7433C23.5436 25.2252 23.1236 24.8052 22.6055 24.8052Z" fill="#D5D3EA"/>
<path d="M31.1019 18.1678H1.09638C0.580683 18.1678 0.162598 17.7497 0.162598 17.234V13.0146H32.0357V17.234C32.0357 17.7498 31.6176 18.1678 31.1019 18.1678V18.1678Z" fill="#00DA80"/>
<path d="M32.0357 13.0146H16.0991V18.1678H31.1019C31.6176 18.1678 32.0357 17.7497 32.0357 17.234V13.0146Z" fill="#00A78E"/>
<path d="M29.2086 8.59908H2.03018V4.88886C2.03018 4.37316 1.61209 3.95508 1.0964 3.95508C0.580702 3.95508 0.162617 4.37316 0.162617 4.88886L0.161621 14.2849H32.0366V11.4271C32.0366 9.86523 30.7705 8.59908 29.2086 8.59908V8.59908ZM7.69512 12.4174H2.02918V11.1856C2.02931 11.1791 2.03018 11.1728 2.03018 11.1664V10.4667H7.69512V12.4174ZM15.1654 12.4174H9.56268V10.4666H15.1654V12.4174ZM22.6356 12.4174H17.0329V10.4666H22.6356V12.4174ZM30.1691 12.4174H24.5031V10.4666H29.2086C29.7391 10.4666 30.1691 10.8966 30.1691 11.4271V12.4174Z" fill="#E2DFF4"/>
<path d="M29.2086 8.59912H16.0991V14.285H32.0367V11.4271C32.0366 9.86527 30.7705 8.59912 29.2086 8.59912V8.59912ZM22.6356 12.4174H17.0329V10.4667H22.6356V12.4174ZM30.169 12.4174H24.5031V10.4667H29.2086C29.7391 10.4667 30.169 10.8967 30.169 11.4271V12.4174Z" fill="#D5D3EA"/>
</g>
<defs>
<clipPath id="clip0_567_5193">
<rect width="31.875" height="31.875" fill="white" transform="translate(0.161621 0.3125)"/>
</clipPath>
</defs>
</svg>
