<svg width="80" height="80" viewBox="0 0 40 40" fill="none" xmlns="http://www.w3.org/2000/svg">
<g clip-path="url(#clip0_567_1676)">
<path d="M28.766 3.41357H23.1384V6.22734H26.6557V38.586H4.14539V6.22742H7.66264V3.41357H2.03502C1.64671 3.41357 1.33154 3.72874 1.33154 4.11706V40.6963C1.33154 41.0847 1.64671 41.3998 2.03502 41.3998H28.766C29.1544 41.3998 29.4695 41.0847 29.4695 40.6963V4.11706C29.4695 3.72874 29.1544 3.41357 28.766 3.41357Z" fill="#76BDF6"/>
<path d="M7.6626 6.93111H23.1385V3.41386H18.2143C18.2143 1.85996 16.9544 0.600098 15.4005 0.600098C13.8466 0.600098 12.5867 1.85996 12.5867 3.41386H7.6626V6.93111Z" fill="#3689C9"/>
<path d="M7.66275 6.93102V6.22754H4.14551V38.5863H26.6559V6.22762H23.1386V6.9311H7.66275V6.93102Z" fill="#FFDDBA"/>
<path d="M15.3999 11.1519C10.7382 11.1519 6.9585 14.9315 6.9585 19.5932C6.9585 24.255 10.7382 28.0346 15.3999 28.0346C20.0616 28.0346 23.8412 24.255 23.8412 19.5932C23.8412 14.9315 20.0616 11.1519 15.3999 11.1519ZM21.0275 21.7036H17.5102V25.2208H13.2895V21.7036H9.77226V17.4829H13.2895V13.9656H17.5102V17.4829H21.0275V21.7036Z" fill="#3689C9"/>
<path d="M17.5104 13.9658H13.2897V17.4831H9.77246V21.7038H13.2897V25.221H17.5104V21.7038H21.0277V17.4831H17.5104V13.9658Z" fill="#E84F4F"/>
<path d="M39.3175 5.87602H38.2624V5.52428C38.2624 5.13596 37.9472 4.8208 37.5589 4.8208H36.8554C36.4671 4.8208 36.1519 5.13596 36.1519 5.52428V5.87602H35.0968C34.9027 5.87602 34.7451 6.03357 34.7451 6.22776V7.28291H32.9865C32.7924 7.28291 32.6348 7.44045 32.6348 7.63465V22.407H33.3382V7.98639H34.7451V35.0691L34.774 35.2099L36.8555 40.0636V41.4002H37.559V40.0636L39.6405 35.2099L39.6693 35.0692V6.22776C39.6693 6.03357 39.5116 5.87602 39.3175 5.87602Z" fill="#3689C9"/>
<path d="M39.6692 21.7036H34.7451V24.5174H39.6692V21.7036Z" fill="#E84F4F"/>
<g opacity="0.14">
<path opacity="0.14" d="M26.6553 6.93115V38.5864H5.2002V39.2898H27.7106V6.93115H26.6553Z" fill="black"/>
</g>
</g>
<defs>
<clipPath id="clip0_567_1676">
<rect width="40.8" height="40.8" fill="white" transform="translate(0.100098 0.600098)"/>
</clipPath>
</defs>
</svg>
