<svg width="80" height="80" viewBox="0 0 40 40" fill="none" xmlns="http://www.w3.org/2000/svg">
<g clip-path="url(#clip0_567_1625)">
<path d="M20.6969 2.78271H39.1092V39.9264H2.89062V2.78271H7.87827" fill="#ECEDF2"/>
<path d="M20.6969 2.78271H39.1092V6.60158H2.89062V2.78271H7.87827" fill="#C6CAD5"/>
<path d="M15.7612 4.22869H39.1097H40.7362C41.103 4.22869 41.4004 3.93138 41.4004 3.5645V2.00111C41.4004 1.63431 41.103 1.33691 40.7362 1.33691H17.4734H11.102H1.26478C0.89798 1.33691 0.600586 1.63423 0.600586 2.00111V3.56458C0.600586 3.93138 0.8979 4.22877 1.26478 4.22877H2.8912H11.675" fill="#525C66"/>
<path d="M14.288 16.4682C18.4323 16.4682 21.7919 13.1086 21.7919 8.9643C21.7919 4.82004 18.4323 1.46045 14.288 1.46045C10.1438 1.46045 6.78418 4.82004 6.78418 8.9643C6.78418 13.1086 10.1438 16.4682 14.288 16.4682Z" fill="#C6CAD5"/>
<path d="M14.288 15.6356C18.4323 15.6356 21.7919 12.276 21.7919 8.13178C21.7919 3.98752 18.4323 0.62793 14.288 0.62793C10.1438 0.62793 6.78418 3.98752 6.78418 8.13178C6.78418 12.276 10.1438 15.6356 14.288 15.6356Z" fill="white"/>
<path d="M18.6697 6.65861H16.093C15.9096 6.65861 15.7608 6.50991 15.7608 6.32639V3.7497C15.7608 3.56626 15.6121 3.41748 15.4286 3.41748H13.1466C12.9631 3.41748 12.8144 3.56618 12.8144 3.7497V6.32647C12.8144 6.50991 12.6657 6.65869 12.4822 6.65869H9.90546C9.72202 6.65869 9.57324 6.80739 9.57324 6.99091V9.27292C9.57324 9.45636 9.72194 9.60514 9.90546 9.60514H12.4822C12.6656 9.60514 12.8144 9.75383 12.8144 9.93735V12.5141C12.8144 12.6975 12.9631 12.8463 13.1466 12.8463H15.4286C15.612 12.8463 15.7608 12.6976 15.7608 12.5141V9.93735C15.7608 9.75391 15.9095 9.60514 16.093 9.60514H18.6697C18.8532 9.60514 19.0019 9.45644 19.0019 9.27292V6.99091C19.0019 6.80739 18.8533 6.65861 18.6697 6.65861Z" fill="#D81616"/>
<path d="M29.7216 18.1543H25.6636V25.5644H29.7216V18.1543Z" fill="#A0D9F2"/>
<path d="M16.3368 18.1543H12.2788V25.5644H16.3368V18.1543Z" fill="#A0D9F2"/>
<path d="M36.4135 18.1543H32.3555V25.5644H36.4135V18.1543Z" fill="#A0D9F2"/>
<path d="M23.0287 18.1543H18.9707V25.5644H23.0287V18.1543Z" fill="#A0D9F2"/>
<path d="M9.64492 18.1543H5.58691V25.5644H9.64492V18.1543Z" fill="#A0D9F2"/>
<path d="M16.3368 28.0825H12.2788V35.4927H16.3368V28.0825Z" fill="#A0D9F2"/>
<path d="M23.0287 28.0825H18.9707V35.4927H23.0287V28.0825Z" fill="#A0D9F2"/>
<path d="M9.64492 28.0825H5.58691V35.4927H9.64492V28.0825Z" fill="#A0D9F2"/>
<path d="M29.7216 8.2251H25.6636V15.6352H29.7216V8.2251Z" fill="#A0D9F2"/>
<path d="M36.4135 8.2251H32.3555V15.6352H36.4135V8.2251Z" fill="#A0D9F2"/>
<path d="M29.7216 26.064H25.6636C25.3877 26.064 25.1641 25.8403 25.1641 25.5645V18.1543C25.1641 17.8785 25.3878 17.6548 25.6636 17.6548H29.7216C29.9975 17.6548 30.2212 17.8785 30.2212 18.1543V25.5645C30.2212 25.8404 29.9974 26.064 29.7216 26.064ZM26.1632 25.0648H29.222V18.6539H26.1632V25.0648Z" fill="white"/>
<path d="M16.3369 26.064H12.2789C12.003 26.064 11.7793 25.8403 11.7793 25.5645V18.1543C11.7793 17.8785 12.0031 17.6548 12.2789 17.6548H16.3369C16.6127 17.6548 16.8364 17.8785 16.8364 18.1543V25.5645C16.8364 25.8404 16.6127 26.064 16.3369 26.064ZM12.7784 25.0648H15.8372V18.6539H12.7784V25.0648Z" fill="white"/>
<path d="M36.4135 26.064H32.3555C32.0796 26.064 31.856 25.8403 31.856 25.5645V18.1543C31.856 17.8785 32.0797 17.6548 32.3555 17.6548H36.4135C36.6894 17.6548 36.9131 17.8785 36.9131 18.1543V25.5645C36.9131 25.8404 36.6894 26.064 36.4135 26.064ZM32.8551 25.0648H35.9139V18.6539H32.8551V25.0648Z" fill="white"/>
<path d="M23.0292 26.064H18.9712C18.6954 26.064 18.4717 25.8403 18.4717 25.5645V18.1543C18.4717 17.8785 18.6954 17.6548 18.9712 17.6548H23.0292C23.3051 17.6548 23.5288 17.8785 23.5288 18.1543V25.5645C23.5288 25.8404 23.305 26.064 23.0292 26.064ZM19.4708 25.0648H22.5296V18.6539H19.4708V25.0648Z" fill="white"/>
<path d="M9.64489 26.064H5.58696C5.31109 26.064 5.0874 25.8403 5.0874 25.5645V18.1543C5.0874 17.8785 5.31116 17.6548 5.58696 17.6548H9.64497C9.92085 17.6548 10.1445 17.8785 10.1445 18.1543V25.5645C10.1445 25.8404 9.92085 26.064 9.64489 26.064ZM6.08652 25.0648H9.14533V18.6539H6.08652V25.0648Z" fill="white"/>
<path d="M36.4137 28.083H25.6636V38.4806L36.4137 39.3134V28.083Z" fill="#A0D9F2"/>
<path d="M36.9129 38.8966H35.9137V28.5821H26.1628V38.8966H25.1636V28.0826C25.1636 27.8067 25.3873 27.583 25.6631 27.583H36.4132C36.6891 27.583 36.9128 27.8068 36.9128 28.0826L36.9129 38.8966Z" fill="white"/>
<path d="M16.3369 35.9928H12.2789C12.003 35.9928 11.7793 35.769 11.7793 35.4932V28.0831C11.7793 27.8072 12.0031 27.5835 12.2789 27.5835H16.3369C16.6127 27.5835 16.8364 27.8073 16.8364 28.0831V35.4932C16.8364 35.769 16.6127 35.9928 16.3369 35.9928ZM12.7784 34.9936H15.8372V28.5826H12.7784V34.9936Z" fill="white"/>
<path d="M23.0292 35.9928H18.9712C18.6954 35.9928 18.4717 35.769 18.4717 35.4932V28.0831C18.4717 27.8072 18.6954 27.5835 18.9712 27.5835H23.0292C23.3051 27.5835 23.5288 27.8073 23.5288 28.0831V35.4932C23.5288 35.769 23.305 35.9928 23.0292 35.9928ZM19.4708 34.9936H22.5296V28.5826H19.4708V34.9936Z" fill="white"/>
<path d="M9.64489 35.9928H5.58696C5.31109 35.9928 5.0874 35.769 5.0874 35.4932V28.0831C5.0874 27.8072 5.31116 27.5835 5.58696 27.5835H9.64497C9.92085 27.5835 10.1445 27.8073 10.1445 28.0831V35.4932C10.1445 35.769 9.92085 35.9928 9.64489 35.9928ZM6.08652 34.9936H9.14533V28.5826H6.08652V34.9936Z" fill="white"/>
<path d="M29.7216 16.135H25.6636C25.3877 16.135 25.1641 15.9112 25.1641 15.6354V8.22515C25.1641 7.94927 25.3878 7.72559 25.6636 7.72559H29.7216C29.9975 7.72559 30.2212 7.94935 30.2212 8.22515V15.6353C30.2212 15.9112 29.9974 16.135 29.7216 16.135ZM26.1632 15.1358H29.222V8.72479H26.1632V15.1358Z" fill="white"/>
<path d="M36.4135 16.135H32.3555C32.0796 16.135 31.856 15.9112 31.856 15.6354V8.22515C31.856 7.94927 32.0797 7.72559 32.3555 7.72559H36.4135C36.6894 7.72559 36.9131 7.94935 36.9131 8.22515V15.6353C36.9131 15.9112 36.6894 16.135 36.4135 16.135ZM32.8551 15.1358H35.9139V8.72479H32.8551V15.1358Z" fill="white"/>
<path d="M36.4139 30.1226H25.6636V31.1218H36.4139V30.1226Z" fill="white"/>
<path d="M31.5383 30.6226H30.5391V39.3129H31.5383V30.6226Z" fill="white"/>
<path d="M16.3371 29.9561H12.2788V30.9553H16.3371V29.9561Z" fill="white"/>
<path d="M23.0295 30.9549H18.9712V29.9557H22.53V28.083H23.5292V30.4552C23.5291 30.7312 23.3054 30.9549 23.0295 30.9549Z" fill="white"/>
<path d="M9.64493 29.9561H5.5874V30.9553H9.64493V29.9561Z" fill="white"/>
<path d="M36.4135 21.0265H32.356V20.0273H35.9138V18.1538H36.913V20.5268C36.9131 20.8027 36.6894 21.0265 36.4135 21.0265Z" fill="white"/>
<path d="M23.029 20.0278H18.9707V21.027H23.029V20.0278Z" fill="white"/>
<path d="M9.64493 20.0278H5.5874V21.027H9.64493V20.0278Z" fill="white"/>
<path d="M16.3371 20.0278H12.2788V21.027H16.3371V20.0278Z" fill="white"/>
<path d="M29.7214 20.0278H25.6631V21.027H29.7214V20.0278Z" fill="white"/>
<path d="M36.4135 11.0982H32.356V10.099H35.9138V8.22559H36.913V10.5986C36.9131 10.8746 36.6894 11.0982 36.4135 11.0982Z" fill="white"/>
<path d="M29.7214 10.0991H25.6631V11.0983H29.7214V10.0991Z" fill="white"/>
<path d="M40.1784 38.4805H1.82155C1.14699 38.4805 0.600098 39.0274 0.600098 39.7018V41.3723H41.3999V39.7018C41.3999 39.0274 40.853 38.4805 40.1784 38.4805Z" fill="#423E3E"/>
</g>
<defs>
<clipPath id="clip0_567_1625">
<rect width="40.8" height="40.8" fill="white" transform="translate(0.600098 0.600098)"/>
</clipPath>
</defs>
</svg>
