<svg width="24" height="25" viewBox="0 0 24 25" fill="none" xmlns="http://www.w3.org/2000/svg">
<g clip-path="url(#clip0_506_1162)">
<path d="M21.3333 0.939941H2.66667C1.19391 0.939941 0 2.13385 0 3.60661V22.2733C0 23.746 1.19391 24.9399 2.66667 24.9399H21.3333C22.8061 24.9399 24 23.746 24 22.2733V3.60661C24 2.13385 22.8061 0.939941 21.3333 0.939941Z" fill="#4460A0"/>
<path fill-rule="evenodd" clip-rule="evenodd" d="M20.1547 5.4123V8.51579L18.3128 8.52059C16.8689 8.52059 16.5907 9.20653 16.5907 10.209V12.4299H20.03L19.5839 15.9028H16.5907V24.9399H13.0032V15.9028H10V12.4299H13.0032V9.86848C13.0032 6.89449 14.8159 5.27319 17.4733 5.27319C18.7402 5.27319 19.8333 5.36913 20.1547 5.4123Z" fill="white"/>
</g>
<defs>
<clipPath id="clip0_506_1162">
<rect width="24" height="24" fill="white" transform="translate(0 0.939941)"/>
</clipPath>
</defs>
</svg>
