<svg width="24" height="25" viewBox="0 0 24 25" fill="none" xmlns="http://www.w3.org/2000/svg">
<g clip-path="url(#clip0_506_1168)">
<path d="M23.993 0.939941H0.00703125C0.003148 0.939941 0 0.943089 0 0.946973V24.9329C0 24.9368 0.003148 24.9399 0.00703125 24.9399H23.993C23.9969 24.9399 24 24.9368 24 24.9329V0.946973C24 0.943089 23.9969 0.939941 23.993 0.939941Z" fill="#D43377"/>
<path d="M15.2812 6.00244H8.71875C6.69946 6.00244 5.0625 7.6394 5.0625 9.65869V16.2212C5.0625 18.2405 6.69946 19.8774 8.71875 19.8774H15.2812C17.3005 19.8774 18.9375 18.2405 18.9375 16.2212V9.65869C18.9375 7.6394 17.3005 6.00244 15.2812 6.00244Z" stroke="white" stroke-width="1.35938"/>
<path d="M12 16.1743C13.7863 16.1743 15.2344 14.7262 15.2344 12.9399C15.2344 11.1536 13.7863 9.70557 12 9.70557C10.2137 9.70557 8.76562 11.1536 8.76562 12.9399C8.76562 14.7262 10.2137 16.1743 12 16.1743Z" stroke="white" stroke-width="1.35938"/>
<path d="M16.0781 9.75244C16.57 9.75244 16.9688 9.3537 16.9688 8.86182C16.9688 8.36994 16.57 7.97119 16.0781 7.97119C15.5862 7.97119 15.1875 8.36994 15.1875 8.86182C15.1875 9.3537 15.5862 9.75244 16.0781 9.75244Z" fill="white"/>
</g>
<defs>
<clipPath id="clip0_506_1168">
<rect y="0.939941" width="24" height="24" rx="3" fill="white"/>
</clipPath>
</defs>
</svg>
