<svg width="24" height="25" viewBox="0 0 24 25" fill="none" xmlns="http://www.w3.org/2000/svg">
<g clip-path="url(#clip0_506_1174)">
<path d="M23.993 0.939941H0.00703125C0.003148 0.939941 0 0.943089 0 0.946973V24.9329C0 24.9368 0.003148 24.9399 0.00703125 24.9399H23.993C23.9969 24.9399 24 24.9368 24 24.9329V0.946973C24 0.943089 23.9969 0.939941 23.993 0.939941Z" fill="#EE8208"/>
<path d="M12.0001 7.36182C12.4539 7.36182 12.8891 7.54208 13.21 7.86294C13.5308 8.1838 13.7111 8.61899 13.7111 9.07275C13.7111 9.52652 13.5308 9.96171 13.21 10.2826C12.8891 10.6034 12.4539 10.7837 12.0001 10.7837C11.5464 10.7837 11.1112 10.6034 10.7903 10.2826C10.4695 9.96171 10.2892 9.52652 10.2892 9.07275C10.2892 8.61899 10.4695 8.1838 10.7903 7.86294C11.1112 7.54208 11.5464 7.36182 12.0001 7.36182ZM12.0001 13.1978C14.2783 13.1978 16.1251 11.3462 16.1251 9.07275C16.1251 6.79932 14.2736 4.94775 12.0001 4.94775C9.72671 4.94775 7.87515 6.79932 7.87515 9.07275C7.87515 11.3462 9.72671 13.1978 12.0001 13.1978ZM13.6689 16.5681C14.5154 16.3766 15.3236 16.0438 16.0595 15.5837C16.1937 15.4987 16.3099 15.3882 16.4013 15.2584C16.4928 15.1285 16.5578 14.9819 16.5926 14.827C16.6275 14.672 16.6314 14.5117 16.6043 14.3552C16.5772 14.1987 16.5195 14.0491 16.4345 13.9149C16.3496 13.7807 16.239 13.6646 16.1092 13.5731C15.9794 13.4816 15.8328 13.4166 15.6778 13.3818C15.5229 13.347 15.3626 13.343 15.2061 13.3702C15.0496 13.3973 14.9 13.455 14.7658 13.5399C13.9322 14.0608 12.969 14.337 11.9861 14.337C11.0031 14.337 10.04 14.0608 9.2064 13.5399C9.0722 13.455 8.92259 13.3973 8.7661 13.3702C8.60961 13.343 8.44931 13.347 8.29435 13.3818C8.13939 13.4166 7.99281 13.4816 7.86298 13.5731C7.73314 13.6646 7.62259 13.7807 7.53765 13.9149C7.45269 14.0491 7.39501 14.1987 7.36787 14.3552C7.34074 14.5117 7.3447 14.672 7.37952 14.827C7.41435 14.9819 7.47935 15.1285 7.57082 15.2584C7.6623 15.3882 7.77845 15.4987 7.91265 15.5837C8.65796 16.0524 9.45952 16.3806 10.3033 16.5681L8.0064 18.879C7.77951 19.1059 7.65205 19.4136 7.65205 19.7345C7.65205 20.0553 7.77951 20.3631 8.0064 20.5899C8.23328 20.8168 8.541 20.9443 8.86187 20.9443C9.18273 20.9443 9.49045 20.8168 9.71734 20.5899L11.9861 18.3165L14.2548 20.5853C14.3671 20.6976 14.5005 20.7868 14.6473 20.8476C14.7941 20.9085 14.9514 20.9398 15.1103 20.9398C15.2692 20.9398 15.4265 20.9085 15.5733 20.8476C15.7201 20.7868 15.8535 20.6976 15.9658 20.5853C16.0782 20.4729 16.1673 20.3396 16.2282 20.1928C16.289 20.046 16.3203 19.8887 16.3203 19.7298C16.3203 19.5709 16.289 19.4136 16.2282 19.2668C16.1673 19.12 16.0782 18.9866 15.9658 18.8743L13.6548 16.5634" fill="white"/>
</g>
<defs>
<clipPath id="clip0_506_1174">
<rect y="0.939941" width="24" height="24" rx="3" fill="white"/>
</clipPath>
</defs>
</svg>
