<svg width="24" height="24" viewBox="0 0 24 24" fill="none" xmlns="http://www.w3.org/2000/svg">
<path d="M7.5 16.875C9.36396 16.875 10.875 15.364 10.875 13.5C10.875 11.636 9.36396 10.125 7.5 10.125C5.63604 10.125 4.125 11.636 4.125 13.5C4.125 15.364 5.63604 16.875 7.5 16.875Z" stroke="#A05F9A" stroke-width="2.25" stroke-linecap="round" stroke-linejoin="round"/>
<path d="M16.5 9.375C18.364 9.375 19.875 7.86396 19.875 6C19.875 4.13604 18.364 2.625 16.5 2.625C14.636 2.625 13.125 4.13604 13.125 6C13.125 7.86396 14.636 9.375 16.5 9.375Z" stroke="#A05F9A" stroke-width="2.25" stroke-linecap="round" stroke-linejoin="round"/>
<path d="M2.625 21.375C2.625 19.875 3.75 16.875 7.5 16.875C11.25 16.875 12.375 19.875 12.375 21.375M11.625 13.875C11.625 12.375 12.75 9.375 16.5 9.375C20.25 9.375 21.375 12.375 21.375 13.875H11.625Z" stroke="#A05F9A" stroke-width="2.25" stroke-linecap="round" stroke-linejoin="round"/>
</svg>
