<svg width="25" height="24" viewBox="0 0 25 24" fill="none" xmlns="http://www.w3.org/2000/svg">
<path d="M21.9286 0H3.07143C2.38944 0 1.73539 0.270918 1.25315 0.753154C0.770918 1.23539 0.5 1.88944 0.5 2.57143L0.5 21.4286C0.5 22.1106 0.770918 22.7646 1.25315 23.2468C1.73539 23.7291 2.38944 24 3.07143 24H21.9286C22.6106 24 23.2646 23.7291 23.7468 23.2468C24.2291 22.7646 24.5 22.1106 24.5 21.4286V2.57143C24.5 1.88944 24.2291 1.23539 23.7468 0.753154C23.2646 0.270918 22.6106 0 21.9286 0V0ZM21.0505 16.4662L20.247 19.9484C20.2061 20.1254 20.1065 20.2834 19.9644 20.3966C19.8223 20.5097 19.646 20.5713 19.4643 20.5714C10.8929 20.5714 3.92857 13.6227 3.92857 5.03571C3.93495 4.85574 3.99892 4.68257 4.11108 4.54168C4.22323 4.40078 4.37765 4.29961 4.55161 4.25304L8.03375 3.44946C8.09315 3.4369 8.15359 3.42991 8.21429 3.42857C8.36968 3.43641 8.52014 3.48571 8.65005 3.57134C8.77995 3.65697 8.88457 3.77582 8.95304 3.91554L10.5602 7.66554C10.5995 7.76664 10.6215 7.8737 10.625 7.98214C10.6119 8.22002 10.5061 8.4433 10.3304 8.60411L8.30054 10.2648C9.53044 12.8716 11.6284 14.9696 14.2352 16.1995L15.8959 14.1696C16.0567 13.9939 16.28 13.8881 16.5179 13.875C16.6263 13.8785 16.7334 13.9004 16.8345 13.9398L20.5845 15.547C20.7243 15.6153 20.8432 15.7199 20.9288 15.8499C21.0144 15.9798 21.0637 16.1303 21.0714 16.2857C21.0704 16.3464 21.0634 16.4069 21.0505 16.4662Z" fill="#D44187"/>
</svg>
