<?xml version="1.0" encoding="utf-8"?>
<svg version="1.1" id="phone" xmlns="http://www.w3.org/2000/svg" x="0px" y="0px"
	 width="24px" height="24px" viewBox="0 0 24 24" style="enable-background:new 0 0 24 24;" xml:space="preserve">
<style type="text/css">
	.st0{fill:#D44187;}
	.st1{fill:#FFFFFF;}
</style>
<path class="st0" d="M23.2,0.8C22.8,0.3,22.1,0,21.4,0l0,0H2.6C1.9,0,1.2,0.3,0.8,0.8C0.3,1.2,0,1.9,0,2.6v18.9
	c0,0.7,0.3,1.3,0.8,1.8C1.2,23.7,1.9,24,2.6,24h18.9c0.7,0,1.3-0.3,1.8-0.8c0.5-0.5,0.8-1.1,0.8-1.8V2.6C24,1.9,23.7,1.2,23.2,0.8"
	/>
<path class="st1" d="M10.7,13c1,1,2.2,1.8,3.5,2.5l1.7-2c0.2-0.2,0.4-0.3,0.6-0.3c0.1,0,0.2,0,0.3,0.1l3.8,1.6
	c0.1,0.1,0.3,0.2,0.3,0.3c0.1,0.1,0.1,0.3,0.1,0.4c0,0.1,0,0.1,0,0.2l-0.8,3.5c0,0.2-0.1,0.3-0.3,0.4c-0.1,0.1-0.3,0.2-0.5,0.2
	c-8.6,0-15.5-6.9-15.5-15.5c0-0.2,0.1-0.4,0.2-0.5c0.1-0.1,0.3-0.2,0.4-0.3L8,2.7c0.1,0,0.1,0,0.2,0c0.2,0,0.3,0.1,0.4,0.1
	c0.1,0.1,0.2,0.2,0.3,0.3l1.6,3.8c0,0.1,0.1,0.2,0.1,0.3c0,0.2-0.1,0.5-0.3,0.6l-2,1.7C8.9,10.8,9.7,12,10.7,13"/>
</svg>
