<svg width="17" height="16" viewBox="0 0 17 16" fill="none" xmlns="http://www.w3.org/2000/svg">
<path d="M12.8325 9.13672L12.8323 9.13693C12.3948 9.56362 12.1945 10.1789 12.2983 10.7821L12.9363 14.503L9.59455 12.7462L9.59425 12.746C9.05305 12.4618 8.4064 12.4618 7.86521 12.746L7.86491 12.7462L4.52311 14.503L5.16118 10.7821C5.16119 10.782 5.16121 10.782 5.16122 10.7819C5.16124 10.7818 5.16125 10.7817 5.16127 10.7816C5.26484 10.1785 5.06451 9.56349 4.62716 9.13693L4.62695 9.13672L1.92354 6.5016L5.65952 5.95871C5.6596 5.9587 5.65968 5.95869 5.65977 5.95868C6.26503 5.87079 6.78839 5.49071 7.05911 4.94208L8.72973 1.55696L10.4004 4.94208C10.6711 5.49079 11.1946 5.87089 11.7999 5.95871L15.5359 6.5016L12.8325 9.13672ZM4.47463 14.7857L4.47466 14.7855L4.47463 14.7857ZM1.63916 6.54293L1.63952 6.54288L1.63916 6.54293ZM8.6026 1.29936C8.60259 1.29934 8.60257 1.29931 8.60256 1.29928L8.6026 1.29936ZM15.7416 6.3011L15.7415 6.30117L15.7416 6.3011Z" stroke="#ED8A19" stroke-width="2"/>
</svg>
