<svg width="16" height="16" viewBox="0 0 16 16" fill="none" xmlns="http://www.w3.org/2000/svg">
<path d="M8.73953 0.856723L10.5374 4.49958C10.6624 4.75295 10.9041 4.92851 11.1837 4.96907L15.204 5.55327C15.9082 5.65568 16.1892 6.52084 15.6798 7.01726L12.7708 9.85282C12.5686 10.05 12.4762 10.3343 12.524 10.6126L13.2106 14.6165C13.331 15.3178 12.5949 15.8524 11.9651 15.5216L8.36946 13.6313C8.11942 13.5 7.82051 13.5 7.57047 13.6313L3.97482 15.5216C3.34507 15.8528 2.60892 15.3178 2.72928 14.6165L3.41589 10.6126C3.46377 10.3343 3.37134 10.05 3.16918 9.85282L0.260144 7.01726C-0.249244 6.52051 0.0317173 5.65535 0.73595 5.55327L4.7562 4.96907C5.03583 4.92851 5.27755 4.75295 5.40257 4.49958L7.2004 0.856723C7.51494 0.218657 8.42466 0.218657 8.73953 0.856723Z" fill="#ED8A19"/>
</svg>
