<?xml version="1.0" encoding="utf-8"?>
<!-- Generator: Adobe Illustrator 25.2.0, SVG Export Plug-In . SVG Version: 6.00 Build 0)  -->
<svg version="1.1" id="Слой_1" xmlns="http://www.w3.org/2000/svg" xmlns:xlink="http://www.w3.org/1999/xlink" x="0px" y="0px"
     width="24px" height="24px" viewBox="0 0 24 24" style="enable-background:new 0 0 24 24;" xml:space="preserve">
<style type="text/css">
	.st0{clip-path:url(#SVGID_2_);}
	.st1{fill-rule:evenodd;clip-rule:evenodd;fill:#00C0F1;}
	.st2{fill:#FFFFFF;}
	.st3{clip-path:url(#SVGID_4_);}
	.st4{fill:#00C0F1;}
	.st5{fill:#76E2F8;}
	.st6{fill:#25D9F8;}
</style>
<g>
	<defs>
		<rect id="SVGID_1_" width="24" height="24"/>
	</defs>
	<clipPath id="SVGID_2_">
		<use xlink:href="#SVGID_1_"  style="overflow:visible;"/>
	</clipPath>
	<g class="st0">
		<path class="st1" d="M2.67,24h18.67c1.47,0,2.67-1.19,2.67-2.67V2.67C24,1.19,22.81,0,21.33,0H2.67C1.19,0,0,1.19,0,2.67v18.67
			C0,22.81,1.19,24,2.67,24z"/>
		<ellipse class="st2" cx="12" cy="12.13" rx="8.67" ry="9.13"/>
		<g>
			<defs>
				<rect id="SVGID_3_" x="4.33" y="6.33" width="13.33" height="12.67"/>
			</defs>
			<clipPath id="SVGID_4_">
				<use xlink:href="#SVGID_3_"  style="overflow:visible;"/>
			</clipPath>
			<g class="st3">
				<path class="st4" d="M9.83,13.78l-1.07,1.08l0.28,1.89l3.12-2.23L9.83,13.78z"/>
				<path class="st5" d="M4.33,11.55l3.15,1.48l2.34,0.74l5.47,4.45L17.67,7.1L4.33,11.55z"/>
				<path class="st6" d="M7.48,13.04l1.56,3.71l0.78-2.97l5.47-4.45L7.48,13.04z"/>
			</g>
		</g>
	</g>
</g>
</svg>
