<svg width="24" height="25" viewBox="0 0 24 25" fill="none" xmlns="http://www.w3.org/2000/svg">
<g clip-path="url(#clip0_506_1183)">
<path fill-rule="evenodd" clip-rule="evenodd" d="M2.66667 24.9399H21.3333C22.8061 24.9399 24 23.746 24 22.2733V3.60661C24 2.13385 22.8061 0.939941 21.3333 0.939941H2.66667C1.19391 0.939941 0 2.13385 0 3.60661V22.2733C0 23.746 1.19391 24.9399 2.66667 24.9399Z" fill="#4DC8F1"/>
<path fill-rule="evenodd" clip-rule="evenodd" d="M18.3622 9.51149C18.5694 14.1285 15.1266 19.2763 9.0318 19.2763C7.17814 19.2763 5.45265 18.7326 4 17.8012C5.74122 18.0064 7.47968 17.5237 8.8596 16.4418C7.42346 16.4154 6.21102 15.4664 5.7935 14.1623C6.30773 14.2606 6.8137 14.2319 7.27564 14.1065C5.69679 13.7888 4.6074 12.3669 4.64278 10.8462C5.08546 11.0919 5.59182 11.2397 6.13003 11.2562C4.66794 10.2797 4.25397 8.34936 5.11416 6.87391C6.73271 8.86005 9.15131 10.1668 11.8797 10.3041C11.4012 8.25029 12.9589 6.27319 15.0775 6.27319C16.0218 6.27319 16.8749 6.67144 17.4733 7.30951C18.221 7.16248 18.9236 6.88924 19.5577 6.51301C19.3128 7.27963 18.7923 7.9232 18.1145 8.32892C18.7785 8.2499 19.4111 8.07338 20 7.81234C19.5601 8.47084 19.0034 9.04876 18.3622 9.51149Z" fill="white"/>
</g>
<defs>
<clipPath id="clip0_506_1183">
<rect width="24" height="24" fill="white" transform="translate(0 0.939941)"/>
</clipPath>
</defs>
</svg>
