<svg width="24" height="25" viewBox="0 0 24 25" fill="none" xmlns="http://www.w3.org/2000/svg">
<g clip-path="url(#clip0_506_1146)">
<path fill-rule="evenodd" clip-rule="evenodd" d="M2.66667 24.9399H21.3333C22.8061 24.9399 24 23.746 24 22.2733V3.60661C24 2.13385 22.8061 0.939941 21.3333 0.939941H2.66667C1.19391 0.939941 0 2.13385 0 3.60661V22.2733C0 23.746 1.19391 24.9399 2.66667 24.9399Z" fill="#7F4DA0"/>
<path fill-rule="evenodd" clip-rule="evenodd" d="M12.0002 4.27336C16.7866 4.27336 20.6668 8.15355 20.6668 12.94C20.6668 17.7265 16.7866 21.6067 12.0002 21.6067C7.2137 21.6067 3.3335 17.7265 3.3335 12.94C3.3335 8.15355 7.2137 4.27336 12.0002 4.27336ZM12.5192 7.80362C13.1085 7.87717 13.5847 8.01913 14.1072 8.27399C14.6211 8.52544 14.95 8.76319 15.3852 9.19593C15.7929 9.60474 16.019 9.91434 16.2588 10.395C16.5929 11.0655 16.783 11.8626 16.8156 12.74C16.8276 13.0393 16.819 13.1061 16.7505 13.1916C16.6203 13.3575 16.3342 13.3301 16.2366 13.1437C16.2057 13.0821 16.1972 13.0291 16.1869 12.7896C16.1697 12.4219 16.1441 12.1841 16.0927 11.9002C15.8905 10.7867 15.356 9.89723 14.5029 9.25922C13.792 8.72556 13.0571 8.46556 12.0944 8.40912C11.7689 8.39031 11.7124 8.37835 11.6387 8.32189C11.5016 8.21413 11.4948 7.96099 11.6267 7.84297C11.7072 7.7694 11.7638 7.75915 12.043 7.7677C12.1886 7.77283 12.4027 7.78994 12.5192 7.80362ZM8.60317 7.98836C8.66314 8.00887 8.75564 8.05676 8.80875 8.09097C9.13421 8.3065 10.0404 9.46447 10.3368 10.0426C10.5064 10.3727 10.5629 10.6173 10.5098 10.7986C10.455 10.9936 10.3642 11.0963 9.9582 11.423C9.79546 11.5547 9.64299 11.6898 9.61903 11.7257C9.55735 11.8147 9.50765 11.9891 9.50765 12.1123C9.50939 12.3979 9.69439 12.9162 9.93765 13.3148C10.1261 13.6243 10.4635 14.0212 10.7976 14.3256C11.1899 14.6849 11.5359 14.9294 11.9265 15.1227C12.4284 15.3724 12.7351 15.4357 12.9595 15.3314C13.016 15.3057 13.076 15.2715 13.0948 15.2561C13.1119 15.2407 13.2439 15.08 13.3878 14.9021C13.6653 14.5531 13.7286 14.4967 13.9188 14.4317C14.1604 14.3496 14.407 14.3718 14.6554 14.4984C14.8439 14.5959 15.255 14.8508 15.5205 15.0355C15.87 15.2801 16.6169 15.889 16.718 16.0105C16.8961 16.2294 16.9269 16.5099 16.807 16.8195C16.6802 17.1462 16.1869 17.7586 15.8426 18.0203C15.5308 18.2563 15.3098 18.3469 15.0186 18.3606C14.7788 18.3726 14.6794 18.3521 14.3728 18.2255C11.9676 17.2351 10.0473 15.7573 8.52265 13.727C7.72609 12.6665 7.11965 11.5667 6.70508 10.4258C6.46355 9.76041 6.45157 9.47133 6.65026 9.13095C6.73593 8.98728 7.10081 8.63149 7.36633 8.43309C7.80831 8.10467 8.01216 7.98322 8.1749 7.94902C8.28624 7.92507 8.47981 7.94388 8.60317 7.98836ZM12.6374 9.04371C13.6773 9.19593 14.4824 9.6783 15.01 10.4617C15.3064 10.903 15.4914 11.4213 15.5548 11.9772C15.577 12.1807 15.577 12.5519 15.5531 12.6135C15.5308 12.6716 15.4588 12.7503 15.3972 12.7828C15.3304 12.817 15.1882 12.8136 15.1094 12.7725C14.9775 12.7058 14.9381 12.5998 14.9381 12.3124C14.9381 11.8694 14.8233 11.4024 14.6246 11.0398C14.3985 10.6259 14.0696 10.2838 13.6687 10.046C13.3244 9.84078 12.8156 9.68855 12.3514 9.65093C12.1835 9.63723 12.091 9.60303 12.0276 9.52948C11.93 9.41829 11.9196 9.26777 12.0019 9.14292C12.091 9.00437 12.228 8.98213 12.6374 9.04371ZM13.0023 10.3351C13.3398 10.407 13.5985 10.5352 13.8194 10.7422C14.1038 11.0107 14.2597 11.3357 14.3282 11.8027C14.3745 12.1072 14.3556 12.2269 14.2477 12.3261C14.1466 12.4185 13.9599 12.4219 13.8468 12.3346C13.7646 12.2731 13.7389 12.2081 13.7201 12.0319C13.6978 11.7976 13.6567 11.6334 13.5865 11.4811C13.4357 11.1578 13.1702 10.9902 12.7214 10.9355C12.5107 10.9098 12.4473 10.8859 12.3788 10.8055C12.2537 10.6567 12.3017 10.4155 12.4747 10.3266C12.5398 10.2941 12.5672 10.2906 12.7111 10.2992C12.8002 10.3043 12.9321 10.3197 13.0023 10.3351Z" fill="white"/>
</g>
<defs>
<clipPath id="clip0_506_1146">
<rect width="24" height="24" fill="white" transform="translate(0 0.939941)"/>
</clipPath>
</defs>
</svg>
