<?xml version="1.0" encoding="utf-8"?>
<!-- Generator: Adobe Illustrator 25.2.0, SVG Export Plug-In . SVG Version: 6.00 Build 0)  -->
<svg version="1.1" id="Слой_1" xmlns="http://www.w3.org/2000/svg" xmlns:xlink="http://www.w3.org/1999/xlink" x="0px" y="0px"
     width="24px" height="24px" viewBox="0 0 24 24" style="enable-background:new 0 0 24 24;" xml:space="preserve">
<style type="text/css">
	.st0{clip-path:url(#SVGID_2_);}
	.st1{fill-rule:evenodd;clip-rule:evenodd;fill:#7F4DA0;}
	.st2{fill-rule:evenodd;clip-rule:evenodd;fill:#FFFFFF;}
</style>
<g>
	<defs>
		<rect id="SVGID_1_" width="24" height="24"/>
	</defs>
	<clipPath id="SVGID_2_">
		<use xlink:href="#SVGID_1_"  style="overflow:visible;"/>
	</clipPath>
	<g class="st0">
		<path class="st1" d="M2.67,24h18.67c1.47,0,2.67-1.19,2.67-2.67V2.67C24,1.19,22.81,0,21.33,0H2.67C1.19,0,0,1.19,0,2.67v18.67
			C0,22.81,1.19,24,2.67,24z"/>
		<path class="st2" d="M12,3.33c4.79,0,8.67,3.88,8.67,8.67c0,4.79-3.88,8.67-8.67,8.67c-4.79,0-8.67-3.88-8.67-8.67
			C3.33,7.21,7.21,3.33,12,3.33z M12.52,6.86c0.59,0.07,1.07,0.22,1.59,0.47c0.51,0.25,0.84,0.49,1.28,0.92
			c0.41,0.41,0.63,0.72,0.87,1.2c0.33,0.67,0.52,1.47,0.56,2.34c0.01,0.3,0,0.37-0.07,0.45c-0.13,0.17-0.42,0.14-0.51-0.05
			c-0.03-0.06-0.04-0.11-0.05-0.35c-0.02-0.37-0.04-0.61-0.09-0.89c-0.2-1.11-0.74-2-1.59-2.64c-0.71-0.53-1.45-0.79-2.41-0.85
			c-0.33-0.02-0.38-0.03-0.46-0.09c-0.14-0.11-0.14-0.36-0.01-0.48c0.08-0.07,0.14-0.08,0.42-0.08C12.19,6.83,12.4,6.85,12.52,6.86z
			 M8.6,7.05c0.06,0.02,0.15,0.07,0.21,0.1c0.33,0.22,1.23,1.37,1.53,1.95c0.17,0.33,0.23,0.57,0.17,0.76
			c-0.05,0.19-0.15,0.3-0.55,0.62c-0.16,0.13-0.32,0.27-0.34,0.3c-0.06,0.09-0.11,0.26-0.11,0.39c0,0.29,0.19,0.8,0.43,1.2
			c0.19,0.31,0.53,0.71,0.86,1.01c0.39,0.36,0.74,0.6,1.13,0.8c0.5,0.25,0.81,0.31,1.03,0.21c0.06-0.03,0.12-0.06,0.14-0.08
			c0.02-0.02,0.15-0.18,0.29-0.35c0.28-0.35,0.34-0.41,0.53-0.47c0.24-0.08,0.49-0.06,0.74,0.07c0.19,0.1,0.6,0.35,0.87,0.54
			c0.35,0.24,1.1,0.85,1.2,0.98c0.18,0.22,0.21,0.5,0.09,0.81c-0.13,0.33-0.62,0.94-0.96,1.2c-0.31,0.24-0.53,0.33-0.82,0.34
			c-0.24,0.01-0.34-0.01-0.65-0.14c-2.41-0.99-4.33-2.47-5.85-4.5c-0.8-1.06-1.4-2.16-1.82-3.3C6.46,8.82,6.45,8.53,6.65,8.19
			c0.09-0.14,0.45-0.5,0.72-0.7c0.44-0.33,0.65-0.45,0.81-0.48C8.29,6.99,8.48,7,8.6,7.05z M12.64,8.1
			c1.04,0.15,1.85,0.63,2.37,1.42c0.3,0.44,0.48,0.96,0.54,1.52c0.02,0.2,0.02,0.57,0,0.64c-0.02,0.06-0.09,0.14-0.16,0.17
			c-0.07,0.03-0.21,0.03-0.29-0.01c-0.13-0.07-0.17-0.17-0.17-0.46c0-0.44-0.11-0.91-0.31-1.27c-0.23-0.41-0.56-0.76-0.96-0.99
			c-0.34-0.21-0.85-0.36-1.32-0.4c-0.17-0.01-0.26-0.05-0.32-0.12C11.93,8.48,11.92,8.33,12,8.2C12.09,8.06,12.23,8.04,12.64,8.1z
			 M13,9.4c0.34,0.07,0.6,0.2,0.82,0.41c0.28,0.27,0.44,0.59,0.51,1.06c0.05,0.3,0.03,0.42-0.08,0.52c-0.1,0.09-0.29,0.1-0.4,0.01
			c-0.08-0.06-0.11-0.13-0.13-0.3c-0.02-0.23-0.06-0.4-0.13-0.55c-0.15-0.32-0.42-0.49-0.87-0.55c-0.21-0.03-0.27-0.05-0.34-0.13
			c-0.13-0.15-0.08-0.39,0.1-0.48c0.07-0.03,0.09-0.04,0.24-0.03C12.8,9.36,12.93,9.38,13,9.4z"/>
	</g>
</g>
</svg>
