<?xml version="1.0" encoding="utf-8"?>
<!-- Generator: Adobe Illustrator 25.2.0, SVG Export Plug-In . SVG Version: 6.00 Build 0)  -->
<svg version="1.1" id="Слой_1" xmlns="http://www.w3.org/2000/svg" xmlns:xlink="http://www.w3.org/1999/xlink" x="0px" y="0px"
     width="24px" height="24px" viewBox="0 0 24 24" style="enable-background:new 0 0 24 24;" xml:space="preserve">
<style type="text/css">
	.st0{clip-path:url(#SVGID_2_);}
	.st1{fill-rule:evenodd;clip-rule:evenodd;fill:#01E675;}
	.st2{fill-rule:evenodd;clip-rule:evenodd;fill:#FFFFFF;}
</style>
<g>
	<defs>
		<rect id="SVGID_1_" width="24" height="24"/>
	</defs>
	<clipPath id="SVGID_2_">
		<use xlink:href="#SVGID_1_"  style="overflow:visible;"/>
	</clipPath>
	<g class="st0">
		<path class="st1" d="M2.67,24h18.67c1.47,0,2.67-1.19,2.67-2.67V2.67C24,1.19,22.81,0,21.33,0H2.67C1.19,0,0,1.19,0,2.67v18.67
			C0,22.81,1.19,24,2.67,24z"/>
		<path class="st2" d="M12,4L12,4L12,4c4.41,0,8,3.59,8,8c0,4.41-3.59,8-8,8c-1.63,0-3.14-0.48-4.4-1.32l-3.07,0.98l1-2.97
			C4.56,15.37,4,13.75,4,12C4,7.59,7.59,4,12,4z M9.76,8.06c-0.16-0.37-0.27-0.39-0.51-0.4c-0.08,0-0.17-0.01-0.27-0.01
			c-0.31,0-0.63,0.09-0.82,0.29c-0.24,0.24-0.82,0.8-0.82,1.95s0.84,2.26,0.95,2.41c0.12,0.16,1.63,2.54,3.98,3.52
			c1.84,0.76,2.38,0.69,2.8,0.6c0.61-0.13,1.38-0.58,1.57-1.13c0.19-0.55,0.19-1.01,0.14-1.11c-0.06-0.1-0.21-0.15-0.45-0.27
			c-0.24-0.12-1.38-0.68-1.59-0.76c-0.21-0.08-0.41-0.05-0.57,0.17c-0.23,0.32-0.45,0.63-0.63,0.83c-0.14,0.15-0.37,0.17-0.56,0.09
			c-0.26-0.11-0.98-0.36-1.88-1.16c-0.69-0.62-1.16-1.38-1.3-1.61c-0.14-0.24-0.01-0.37,0.09-0.5c0.12-0.15,0.23-0.25,0.35-0.39
			c0.12-0.14,0.18-0.21,0.26-0.37c0.08-0.16,0.02-0.32-0.03-0.43C10.43,9.68,9.96,8.53,9.76,8.06z"/>
	</g>
</g>
</svg>
