<svg width="24" height="25" viewBox="0 0 24 25" fill="none" xmlns="http://www.w3.org/2000/svg">
<g clip-path="url(#clip0_506_1140)">
<path fill-rule="evenodd" clip-rule="evenodd" d="M2.66667 24.9399H21.3333C22.8061 24.9399 24 23.746 24 22.2733V3.60661C24 2.13385 22.8061 0.939941 21.3333 0.939941H2.66667C1.19391 0.939941 0 2.13385 0 3.60661V22.2733C0 23.746 1.19391 24.9399 2.66667 24.9399Z" fill="#01E675"/>
<path fill-rule="evenodd" clip-rule="evenodd" d="M11.9977 4.93994V4.94007H12.0023C16.4126 4.94007 20 8.5285 20 12.94C20 17.3514 16.4126 20.9399 12.0023 20.9399C10.3755 20.9399 8.8662 20.4556 7.60148 19.6185L4.52654 20.6012L5.52334 17.6289C4.56422 16.312 4 14.6894 4 12.9399C4 8.52837 7.58742 4.93994 11.9977 4.93994ZM9.76428 9.00355C9.60916 8.63203 9.49159 8.61796 9.25659 8.60841C9.17658 8.60376 9.08741 8.59912 8.98855 8.59912C8.68282 8.59912 8.36315 8.68845 8.17035 8.88595C7.93534 9.1258 7.35228 9.6854 7.35228 10.833C7.35228 11.9806 8.18919 13.0905 8.30198 13.2458C8.41955 13.4009 9.9336 15.79 12.2844 16.7638C14.1228 17.5257 14.6683 17.455 15.0867 17.3657C15.6979 17.234 16.4643 16.7824 16.6571 16.237C16.8499 15.6913 16.8499 15.2257 16.7934 15.1269C16.737 15.0282 16.5818 14.9719 16.3468 14.8541C16.1118 14.7365 14.9691 14.1722 14.7528 14.0969C14.5412 14.017 14.3391 14.0453 14.1793 14.2711C13.9536 14.5862 13.7327 14.906 13.5539 15.0988C13.4129 15.2493 13.1824 15.2681 12.9897 15.1881C12.7311 15.0801 12.0071 14.8259 11.1137 14.0311C10.4225 13.4151 9.95231 12.6485 9.81603 12.4181C9.67962 12.183 9.80197 12.0465 9.90998 11.9196C10.0276 11.7737 10.1403 11.6703 10.2579 11.5338C10.3755 11.3975 10.4413 11.3269 10.5165 11.167C10.5965 11.0118 10.54 10.8519 10.4836 10.7343C10.4272 10.6167 9.95709 9.46905 9.76428 9.00355Z" fill="white"/>
</g>
<defs>
<clipPath id="clip0_506_1140">
<rect width="24" height="24" fill="white" transform="translate(0 0.939941)"/>
</clipPath>
</defs>
</svg>
