<svg width="80" height="80" viewBox="0 0 80 80" fill="none" xmlns="http://www.w3.org/2000/svg">
<g clip-path="url(#clip0_680_5482)">
<path d="M39.9973 79.997C62.0872 79.997 79.9945 62.0896 79.9945 39.9997C79.9945 17.9098 62.0872 0.00244141 39.9973 0.00244141C17.9074 0.00244141 0 17.9098 0 39.9997C0 62.0896 17.9074 79.997 39.9973 79.997Z" fill="#59D8FF"/>
<path d="M55.5415 62.9611C33.4517 62.9611 15.5443 45.0537 15.5443 22.9639C15.5443 16.7703 16.953 10.9062 19.466 5.67285C7.80667 12.6614 0 25.417 0 39.9997C0 62.0896 17.9074 79.997 39.9973 79.997C55.8936 79.997 69.623 70.723 76.0728 57.2907C70.0703 60.8886 63.0488 62.9611 55.5415 62.9611Z" fill="#00C3FF"/>
<path d="M52.1307 10.0908L53.7595 12.5577C54.0103 12.9376 53.8153 13.4512 53.3756 13.569L52.2484 13.871C51.8929 13.9663 51.5273 13.7552 51.4319 13.3996L50.706 10.6907C50.6107 10.3352 50.8218 9.96956 51.1774 9.87424L51.4016 9.81424C51.6791 9.74002 51.9726 9.85143 52.1307 10.0908Z" fill="#B4FF87"/>
<path d="M50.088 13.7126L50.0999 13.7569C50.1952 14.1124 49.9841 14.4781 49.6285 14.5734L49.5841 14.5852C49.2286 14.6806 48.8628 14.4695 48.7677 14.1138L48.7558 14.0695C48.6605 13.714 48.8716 13.3483 49.2272 13.253L49.2716 13.2412C49.6271 13.1458 49.9925 13.3568 50.088 13.7126Z" fill="#B4FF87"/>
<path d="M56.9363 5.29153L56.8622 6.52686C56.8466 6.78499 56.7292 7.0264 56.5358 7.19812L55.2603 8.32923C54.8573 8.68658 54.8203 9.30299 55.1776 9.70597L55.9887 10.6205C56.278 10.9468 56.802 10.8936 57.02 10.5161L57.0644 10.4391C57.3336 9.97269 57.93 9.81284 58.3966 10.0821C58.863 10.3513 59.4594 10.1914 59.7288 9.72503L60.2163 8.88049L60.371 8.12516L61.1596 9.0144C61.5533 9.45846 61.4626 10.1482 60.9672 10.4752L58.398 12.1716C58.3106 12.2294 58.2142 12.2727 58.113 12.2998L55.9917 12.8682C55.7419 12.9352 55.5287 13.0985 55.3995 13.3226L54.6262 14.662L54.1598 14.787C53.6817 14.9151 53.3978 15.4065 53.5259 15.8848L53.7554 16.7414C53.8948 17.2617 53.5861 17.7965 53.0659 17.9358L50.9532 18.5019C50.4329 18.6412 50.1241 19.1761 50.2637 19.6963L50.8298 21.8089C50.9691 22.3293 51.504 22.638 52.0242 22.4985L55.732 21.505C56.1375 21.3963 56.428 21.0405 56.4531 20.6214L56.6723 16.9695L58.0046 16.6125L61.6459 17.8442C62.103 17.9989 62.5481 17.5817 62.4231 17.1156C62.3816 16.9608 62.2802 16.8287 62.1416 16.7487L60.6691 15.8986L62.0013 15.5415L64.4323 16.0389C64.7942 16.1129 65.0832 16.3851 65.1787 16.742L65.5551 18.147C65.6553 18.5211 66.0397 18.743 66.4137 18.6427L66.6501 18.5794C66.9065 18.5106 67.1023 18.303 67.1555 18.0428L67.2958 17.3567C67.4569 16.5693 68.4477 16.3039 68.9808 16.9053L69.7328 17.7534L71.065 17.3964L72.4893 19.5534C72.9133 20.1956 72.4613 21.053 71.6918 21.066L67.9022 21.1297C67.8223 21.131 67.7431 21.1421 67.6661 21.1628L65.6757 21.6961C65.3676 21.7788 65.1846 22.0955 65.2673 22.4036C65.3693 22.7846 65.0682 23.1533 64.6748 23.1299L61.8229 22.9588C61.4038 22.9336 61.0479 22.6433 60.9393 22.2377L60.6597 21.1943C60.5204 20.6739 59.9855 20.3652 59.4654 20.5047L57.8958 20.9252C57.7946 20.9524 57.6985 20.9955 57.6108 21.0533L54.2353 23.2821C54.1479 23.3399 54.0515 23.3832 53.9503 23.4102L52.021 23.9273C51.6642 24.0229 51.392 24.3118 51.3179 24.6737L50.8746 26.8396C50.8387 27.0151 50.7748 27.1837 50.6852 27.3389L49.2152 29.8852C48.9943 30.268 48.9343 30.7228 49.0488 31.1497L50.1193 35.1449C50.2337 35.5719 50.513 35.9357 50.8957 36.1568L54.7676 38.3921C55.1504 38.6131 55.6053 38.6731 56.0322 38.5586L63.7488 36.4909C64.2692 36.3515 64.804 36.6602 64.9432 37.1804L66.059 41.345C66.0983 41.4912 66.1709 41.6262 66.2714 41.7395L68.012 43.7025C68.1123 43.8158 68.1852 43.9508 68.2244 44.0971L68.8477 46.4232C68.8683 46.5002 68.8983 46.5744 68.937 46.6441L74.0293 55.8172C74.2465 56.2085 74.7023 56.4016 75.1345 56.2858L76.2332 55.9914C76.529 55.9122 76.7739 55.7019 76.8922 55.4194C80.1941 47.5359 81.0144 38.542 78.6311 29.6473C75.6007 18.3337 68.0067 9.46581 58.363 4.47746C57.7344 4.15261 56.9784 4.58558 56.9363 5.29153Z" fill="#B4FF87"/>
<path d="M39.9022 46.1884L38.5943 44.2077C38.2673 43.7124 37.6598 43.4818 37.0865 43.6354L35.9341 43.9443C35.5809 44.039 35.2044 43.9894 34.8876 43.8065L32.4986 42.4272C32.1817 42.2443 31.8053 42.1949 31.452 42.2894L29.8912 42.7077C29.538 42.8024 29.1615 42.7529 28.8447 42.5699L28.5112 42.3774C27.9972 42.0805 27.3507 42.1461 26.9065 42.5399L25.5865 43.7105C25.4263 43.8526 25.2352 43.9554 25.0284 44.0108L23.6387 44.3832C23.0652 44.5369 22.4579 44.3063 22.1308 43.8108L20.6925 41.6325C20.4327 41.2391 19.9899 41.0055 19.5183 41.0135L16.5462 41.0635C15.5926 41.0796 14.911 40.1459 15.2165 39.2425L15.9462 37.0851C16.094 36.6482 16.4503 36.3142 16.8957 36.1948L19.3561 35.5356C19.8606 35.4004 20.3985 35.5618 20.745 35.9528L21.8761 37.2282C22.0904 37.47 22.4225 37.5697 22.7346 37.4861C23.1894 37.3642 23.4591 36.8968 23.3372 36.442L22.649 33.8732C22.546 33.489 22.614 33.0791 22.8352 32.7487L30.3575 21.518C30.5434 21.2405 30.8238 21.0397 31.1466 20.9532L34.1266 20.1547C35.036 19.911 35.4393 18.8482 34.9207 18.0627L33.8865 16.4966C33.685 16.1914 33.3704 15.9786 33.0121 15.9053L28.6567 15.0142C28.0036 14.8804 27.3484 15.2331 27.1003 15.8517L25.4463 19.9725C25.1735 20.6519 24.4179 20.9999 23.7244 20.7652L22.0964 20.2146C21.195 19.9096 20.866 18.805 21.4535 18.0566L24.224 14.527C24.4082 14.2922 24.6635 14.1237 24.952 14.0464L29.1708 12.9159C29.5387 12.8174 29.9169 13.0357 30.0153 13.4034C30.1137 13.7714 30.4919 13.9897 30.8598 13.8909L32.8582 13.3554C33.5938 13.1582 34.0305 12.402 33.8335 11.6663L33.4764 10.3341C33.2793 9.5985 32.523 9.16177 31.7874 9.35881L24.0754 11.4254C23.0235 11.7073 22.0783 12.2942 21.3593 13.1125L19.5903 15.1253C19.4145 15.3253 19.0869 15.2486 19.018 14.9915L18.8222 14.2609C18.625 13.5253 17.8687 13.0885 17.1331 13.2856L15.0206 13.8517C14.6673 13.9464 14.366 14.1776 14.1831 14.4942L13.0835 16.3987C12.7548 16.9681 12.0699 17.2263 11.4471 17.0156L9.06767 16.2106C8.48126 16.0123 7.83828 16.2273 7.47828 16.7309C3.94995 21.6674 1.55601 27.3797 0.544434 33.4369L1.07632 33.2943L5.51606 40.6994C5.94435 41.4136 6.79405 41.7575 7.59844 41.5419C8.41392 41.3235 9.28487 41.5269 9.91894 42.0843L12.2099 44.0976C12.4848 44.339 12.8441 44.4615 13.2091 44.4379L18.9839 44.0655C19.4088 44.0382 19.8222 44.2083 20.1045 44.5268L21.1377 45.6916C21.4843 46.0826 22.0221 46.244 22.5266 46.1088L24.3677 45.6156C25.1034 45.4184 25.8598 45.8549 26.0568 46.5909L26.2659 47.3712C26.3606 47.7245 26.311 48.1009 26.1281 48.4178L25.6012 49.3303C25.4942 49.5156 25.4318 49.7236 25.419 49.9373L25.2348 53.006C25.2001 53.5828 25.5288 54.1199 26.0581 54.3518L32.6589 57.2438C33.0427 57.412 33.3293 57.7454 33.4375 58.1501L36.3943 69.1853C36.4496 69.3921 36.5524 69.5832 36.6946 69.7434L42.0514 75.7844C42.398 76.1753 42.9358 76.3368 43.4403 76.2016L43.7088 76.1297C44.5321 75.9092 44.9602 75.0022 44.6072 74.2263L42.1012 68.7179C41.9169 68.3124 41.9395 67.8429 42.1622 67.4573L45.4227 61.8098C45.6057 61.493 45.655 61.1165 45.5605 60.7633L44.9944 58.6506C44.7972 57.9149 45.2338 57.1585 45.9697 56.9615L47.6738 56.5049C48.2473 56.3512 48.6581 55.8479 48.6935 55.2554L49.0935 48.592C49.1307 47.9711 48.7481 47.4023 48.1588 47.2028L44.8416 46.0806C44.5836 45.9934 44.3057 45.9843 44.0425 46.0548L41.4094 46.7603C40.8367 46.9142 40.2294 46.6837 39.9022 46.1884Z" fill="#B4FF87"/>
<path d="M13.2091 44.4375L18.9838 44.0652C19.4087 44.0378 19.8223 44.2082 20.1046 44.5264L21.1378 45.6913C21.4843 46.0822 22.022 46.2437 22.5265 46.1085L22.7304 46.0538C21.6156 44.4718 20.6096 42.7956 19.7234 41.0355C19.6552 41.0262 19.5882 41.0115 19.5182 41.0128L16.5461 41.0628C15.5925 41.0789 14.911 40.1454 15.2164 39.2418L15.9464 37.0845C16.0943 36.6476 16.4505 36.3135 16.896 36.1941L17.6171 36.001C17.3208 35.1357 17.0418 34.2604 16.8015 33.3638C14.988 26.596 15.0356 19.7734 16.6136 13.4238L15.0202 13.8509C14.6669 13.9456 14.3656 14.1767 14.1827 14.4934L13.0831 16.3976C12.7544 16.967 12.0695 17.2251 11.4467 17.0145L9.06728 16.2095C8.49399 16.0156 7.8707 16.2214 7.50664 16.7009C6.99741 17.4112 6.51381 18.1386 6.05224 18.8798C5.8888 19.143 5.73536 19.412 5.57786 19.6789C5.25192 20.2303 4.93957 20.7896 4.6405 21.356C4.4816 21.6572 4.32066 21.9572 4.1694 22.2624C3.79331 23.0208 3.43643 23.789 3.10876 24.5705C2.99048 24.853 2.88642 25.1418 2.77454 25.4271C2.53751 26.0306 2.31219 26.6387 2.10422 27.2539C1.9775 27.6293 1.85812 28.0076 1.74234 28.3873C1.57624 28.9317 1.42609 29.4815 1.28312 30.0334C1.18921 30.3969 1.08624 30.7577 1.00264 31.1242C0.828265 31.8869 0.683888 32.658 0.554199 33.4327L1.07624 33.2928L5.51598 40.6976C5.94412 41.4119 6.79397 41.7558 7.59836 41.5401C8.41384 41.3217 9.28479 41.5252 9.91901 42.0825L12.21 44.0958C12.4845 44.3386 12.8439 44.4613 13.2091 44.4375Z" fill="#9BF57D"/>
<path d="M45.4229 61.8096C45.4357 61.7875 45.4357 61.7607 45.4473 61.7379C37.7708 59.7502 30.8154 55.5119 25.5294 49.5688C25.4862 49.6903 25.4266 49.8073 25.4189 49.937L25.2347 53.0056C25.2 53.5825 25.5286 54.1195 26.058 54.3514L32.659 57.2436C33.0429 57.4118 33.3293 57.7452 33.4376 58.1499L36.3944 69.1851C36.4497 69.3919 36.5525 69.583 36.6947 69.7432L42.0515 75.7842C42.398 76.1751 42.9357 76.3366 43.4402 76.2014L43.7087 76.1295C44.532 75.909 44.9601 75.002 44.6071 74.2262L42.1012 68.7179C41.9168 68.3124 41.9394 67.8427 42.1621 67.4571L45.4229 61.8096Z" fill="#9BF57D"/>
<path d="M48.4557 23.7046C45.1499 23.7046 42.1569 25.0546 39.9869 27.2373C37.8169 25.0546 34.8238 23.7046 31.518 23.7046C24.892 23.7046 19.5205 29.1253 19.5205 35.8121C19.5205 45.0707 30.2833 56.1988 39.9869 60.739C49.6906 56.1988 60.4533 45.0707 60.4533 35.8121C60.4534 29.1254 55.0821 23.7046 48.4557 23.7046Z" fill="#FF6991"/>
<path d="M32.5802 34.3305C32.5802 30.4127 34.0548 26.9395 36.332 24.7268C34.8576 24.0735 33.2316 23.7046 31.5182 23.7046C24.892 23.7046 19.5205 29.1251 19.5205 35.8119C19.5205 45.0705 30.2833 56.1988 39.9869 60.7392C41.953 59.8193 43.9596 58.6185 45.9145 57.2282C39.1141 51.9233 32.5802 42.415 32.5802 34.3305Z" fill="#FF507D"/>
</g>
<defs>
<clipPath id="clip0_680_5482">
<rect width="80" height="80" fill="white"/>
</clipPath>
</defs>
</svg>
