<svg width="24" height="25" viewBox="0 0 24 25" fill="none" xmlns="http://www.w3.org/2000/svg">
<g clip-path="url(#clip0_506_1177)">
<path fill-rule="evenodd" clip-rule="evenodd" d="M2.66667 24.9399H21.3333C22.8061 24.9399 24 23.746 24 22.2733V3.60661C24 2.13385 22.8061 0.939941 21.3333 0.939941H2.66667C1.19391 0.939941 0 2.13385 0 3.60661V22.2733C0 23.746 1.19391 24.9399 2.66667 24.9399Z" fill="#FF0002"/>
<path fill-rule="evenodd" clip-rule="evenodd" d="M10.348 15.0298L10.3475 10.5024L14.6705 12.7739L10.348 15.0298ZM19.84 9.71791C19.84 9.71791 19.6835 8.60759 19.204 8.11865C18.5955 7.47663 17.9135 7.47361 17.601 7.43634C15.362 7.27319 12.0035 7.27319 12.0035 7.27319H11.9965C11.9965 7.27319 8.638 7.27319 6.399 7.43634C6.086 7.47361 5.4045 7.47663 4.7955 8.11865C4.316 8.60759 4.16 9.71791 4.16 9.71791C4.16 9.71791 4 11.0221 4 12.3258V13.5484C4 14.8526 4.16 16.1563 4.16 16.1563C4.16 16.1563 4.316 17.2666 4.7955 17.7555C5.4045 18.3976 6.204 18.3774 6.56 18.4444C7.84 18.5683 12 18.6065 12 18.6065C12 18.6065 15.362 18.6015 17.601 18.4383C17.9135 18.4006 18.5955 18.3976 19.204 17.7555C19.6835 17.2666 19.84 16.1563 19.84 16.1563C19.84 16.1563 20 14.8526 20 13.5484V12.3258C20 11.0221 19.84 9.71791 19.84 9.71791Z" fill="white"/>
</g>
<defs>
<clipPath id="clip0_506_1177">
<rect width="24" height="24" fill="white" transform="translate(0 0.939941)"/>
</clipPath>
</defs>
</svg>
